<svg id="SvgjsSvg1001" width="288" height="288" xmlns="http://www.w3.org/2000/svg" version="1.1" xmlns:xlink="http://www.w3.org/1999/xlink" xmlns:svgjs="http://svgjs.com/svgjs"><defs id="SvgjsDefs1002"></defs><g id="SvgjsG1008"><svg xmlns="http://www.w3.org/2000/svg" fill="currentColor" class="bi bi-bookmark-check-fill" viewBox="0 0 16 16" width="288" height="288"><path fill-rule="evenodd" d="M2 15.5V2a2 2 0 0 1 2-2h8a2 2 0 0 1 2 2v13.5a.5.5 0 0 1-.74.439L8 13.069l-5.26 2.87A.5.5 0 0 1 2 15.5zm8.854-9.646a.5.5 0 0 0-.708-.708L7.5 7.793 6.354 6.646a.5.5 0 1 0-.708.708l1.5 1.5a.5.5 0 0 0 .708 0l3-3z" fill="#4e9df5" class="color000 svgShape"></path></svg></g></svg>