<svg id="eQIPobNwHtd1" xmlns="http://www.w3.org/2000/svg" xmlns:xlink="http://www.w3.org/1999/xlink" viewBox="0 0 622 539" shape-rendering="geometricPrecision" text-rendering="geometricPrecision">
<style><![CDATA[
#eQIPobNwHtd20_to {animation: eQIPobNwHtd20_to__to 9500ms linear 1 normal forwards}@keyframes eQIPobNwHtd20_to__to { 0% {transform: translate(-278.548803px,210.351806px)} 23.157895% {transform: translate(0.273121px,250.992408px)} 47.368421% {transform: translate(187.242132px,245.7213px)} 97.894737% {transform: translate(577.438328px,234.720728px)} 100% {transform: translate(577.438328px,234.720728px)}} #eQIPobNwHtd20_tr {animation: eQIPobNwHtd20_tr__tr 9500ms linear 1 normal forwards}@keyframes eQIPobNwHtd20_tr__tr { 0% {transform: rotate(4.390692deg)} 2.105263% {transform: rotate(4.390692deg)} 11.578947% {transform: rotate(4.390692deg)} 23.157895% {transform: rotate(-2.890371deg)} 47.368421% {transform: rotate(2.072415deg)} 100% {transform: rotate(2.072415deg)}} #eQIPobNwHtd53_to {animation: eQIPobNwHtd53_to__to 9500ms linear 1 normal forwards}@keyframes eQIPobNwHtd53_to__to { 0% {transform: translate(-205.548803px,35.351806px)} 23.157895% {transform: translate(73.273122px,75.992408px)} 47.368421% {transform: translate(260.242132px,70.7213px)} 97.894737% {transform: translate(650.438328px,59.720728px)} 100% {transform: translate(650.438328px,59.720728px)}} #eQIPobNwHtd53_tr {animation: eQIPobNwHtd53_tr__tr 9500ms linear 1 normal forwards}@keyframes eQIPobNwHtd53_tr__tr { 0% {transform: rotate(4.390692deg)} 2.105263% {transform: rotate(4.390692deg)} 11.578947% {transform: rotate(4.390692deg)} 23.157895% {transform: rotate(-2.890371deg)} 47.368421% {transform: rotate(2.072415deg)} 100% {transform: rotate(2.072415deg)}}
]]></style>
<defs><linearGradient id="eQIPobNwHtd8-fill" x1="0.647533" y1="0.08309" x2="0.489128" y2="0.718095" spreadMethod="pad" gradientUnits="objectBoundingBox" gradientTransform="translate(0 0)"><stop id="eQIPobNwHtd8-fill-0" offset="0%" stop-color="#bbc7eb"/><stop id="eQIPobNwHtd8-fill-1" offset="100%" stop-color="rgba(187,199,235,0)"/></linearGradient><linearGradient id="eQIPobNwHtd9-fill" x1="0.647533" y1="0.08309" x2="0.489128" y2="0.718095" spreadMethod="pad" gradientUnits="objectBoundingBox" gradientTransform="translate(0 0)"><stop id="eQIPobNwHtd9-fill-0" offset="0%" stop-color="#e1ebf8"/><stop id="eQIPobNwHtd9-fill-1" offset="100%" stop-color="rgba(187,199,235,0)"/></linearGradient><linearGradient id="eQIPobNwHtd11-fill" x1="0.647533" y1="0.08309" x2="0.489128" y2="0.718095" spreadMethod="pad" gradientUnits="objectBoundingBox" gradientTransform="translate(0 0)"><stop id="eQIPobNwHtd11-fill-0" offset="0%" stop-color="#e1ebf8"/><stop id="eQIPobNwHtd11-fill-1" offset="100%" stop-color="rgba(187,199,235,0)"/></linearGradient><linearGradient id="eQIPobNwHtd12-fill" x1="0.647533" y1="0.08309" x2="0.489128" y2="0.718095" spreadMethod="pad" gradientUnits="objectBoundingBox" gradientTransform="translate(0 0)"><stop id="eQIPobNwHtd12-fill-0" offset="0%" stop-color="#e1ebf8"/><stop id="eQIPobNwHtd12-fill-1" offset="100%" stop-color="rgba(187,199,235,0)"/></linearGradient><linearGradient id="eQIPobNwHtd14-fill" x1="0.647533" y1="0.08309" x2="0.489128" y2="0.718095" spreadMethod="pad" gradientUnits="objectBoundingBox" gradientTransform="translate(0 0)"><stop id="eQIPobNwHtd14-fill-0" offset="0%" stop-color="#bbc7eb"/><stop id="eQIPobNwHtd14-fill-1" offset="100%" stop-color="rgba(187,199,235,0)"/></linearGradient><linearGradient id="eQIPobNwHtd15-fill" x1="0.647533" y1="0.08309" x2="0.489128" y2="0.718095" spreadMethod="pad" gradientUnits="objectBoundingBox" gradientTransform="translate(0 0)"><stop id="eQIPobNwHtd15-fill-0" offset="0%" stop-color="#e1ebf8"/><stop id="eQIPobNwHtd15-fill-1" offset="100%" stop-color="rgba(187,199,235,0)"/></linearGradient><linearGradient id="eQIPobNwHtd17-fill" x1="0.320613" y1="0.077694" x2="0.524716" y2="0.703973" spreadMethod="pad" gradientUnits="objectBoundingBox" gradientTransform="translate(0 0)"><stop id="eQIPobNwHtd17-fill-0" offset="0%" stop-color="#bbc7eb"/><stop id="eQIPobNwHtd17-fill-1" offset="100%" stop-color="rgba(187,199,235,0)"/></linearGradient><linearGradient id="eQIPobNwHtd18-fill" x1="0.647533" y1="0.08309" x2="0.489128" y2="0.718095" spreadMethod="pad" gradientUnits="objectBoundingBox" gradientTransform="translate(0 0)"><stop id="eQIPobNwHtd18-fill-0" offset="0%" stop-color="#e1ebf8"/><stop id="eQIPobNwHtd18-fill-1" offset="100%" stop-color="rgba(187,199,235,0)"/></linearGradient><linearGradient id="eQIPobNwHtd26-fill" x1="0.507261" y1="0.268552" x2="0.586675" y2="0.785507" spreadMethod="pad" gradientUnits="objectBoundingBox" gradientTransform="translate(0 0)"><stop id="eQIPobNwHtd26-fill-0" offset="0%" stop-color="#003b36"/><stop id="eQIPobNwHtd26-fill-1" offset="100%" stop-color="rgba(0,59,54,0)"/></linearGradient><linearGradient id="eQIPobNwHtd31-fill" x1="0.498432" y1="0.613135" x2="0.50752" y2="-0.042683" spreadMethod="pad" gradientUnits="objectBoundingBox" gradientTransform="translate(0 0)"><stop id="eQIPobNwHtd31-fill-0" offset="0%" stop-color="#000"/><stop id="eQIPobNwHtd31-fill-1" offset="100%" stop-color="rgba(0,0,0,0)"/></linearGradient><linearGradient id="eQIPobNwHtd34-fill" x1="1.552303" y1="0.782436" x2="0.457948" y2="0.488714" spreadMethod="pad" gradientUnits="objectBoundingBox" gradientTransform="translate(0 0)"><stop id="eQIPobNwHtd34-fill-0" offset="0%" stop-color="#000"/><stop id="eQIPobNwHtd34-fill-1" offset="100%" stop-color="rgba(0,0,0,0)"/></linearGradient><linearGradient id="eQIPobNwHtd37-fill" x1="0.676084" y1="2.604207" x2="0.453386" y2="-0.064104" spreadMethod="pad" gradientUnits="objectBoundingBox" gradientTransform="translate(0 0)"><stop id="eQIPobNwHtd37-fill-0" offset="0%" stop-color="#000"/><stop id="eQIPobNwHtd37-fill-1" offset="100%" stop-color="rgba(0,0,0,0)"/></linearGradient><linearGradient id="eQIPobNwHtd40-fill" x1="1.520736" y1="0.531222" x2="0.45958" y2="0.498594" spreadMethod="pad" gradientUnits="objectBoundingBox" gradientTransform="translate(0 0)"><stop id="eQIPobNwHtd40-fill-0" offset="0%" stop-color="#000"/><stop id="eQIPobNwHtd40-fill-1" offset="100%" stop-color="rgba(0,0,0,0)"/></linearGradient><linearGradient id="eQIPobNwHtd42-fill" x1="1.167608" y1="1.153335" x2="0.330375" y2="0.339118" spreadMethod="pad" gradientUnits="objectBoundingBox" gradientTransform="translate(0 0)"><stop id="eQIPobNwHtd42-fill-0" offset="0%" stop-color="#000"/><stop id="eQIPobNwHtd42-fill-1" offset="100%" stop-color="rgba(0,0,0,0)"/></linearGradient><linearGradient id="eQIPobNwHtd50-fill" x1="1.332374" y1="1.882443" x2="0.225521" y2="0.045382" spreadMethod="pad" gradientUnits="objectBoundingBox" gradientTransform="translate(0 0)"><stop id="eQIPobNwHtd50-fill-0" offset="0%" stop-color="#7d1230"/><stop id="eQIPobNwHtd50-fill-1" offset="100%" stop-color="rgba(125,18,48,0)"/></linearGradient><linearGradient id="eQIPobNwHtd52-fill" x1="1.50208" y1="0.520133" x2="0.46082" y2="0.500094" spreadMethod="pad" gradientUnits="objectBoundingBox" gradientTransform="translate(0 0)"><stop id="eQIPobNwHtd52-fill-0" offset="0%" stop-color="#000"/><stop id="eQIPobNwHtd52-fill-1" offset="100%" stop-color="rgba(0,0,0,0)"/></linearGradient><linearGradient id="eQIPobNwHtd56-fill" x1="1.32227" y1="0.932359" x2="0.245057" y2="0.460093" spreadMethod="pad" gradientUnits="objectBoundingBox" gradientTransform="translate(0 0)"><stop id="eQIPobNwHtd56-fill-0" offset="0%" stop-color="#7d1230"/><stop id="eQIPobNwHtd56-fill-1" offset="100%" stop-color="rgba(125,18,48,0)"/></linearGradient><linearGradient id="eQIPobNwHtd58-fill" x1="-0.105425" y1="-0.193398" x2="0.740317" y2="0.753902" spreadMethod="pad" gradientUnits="objectBoundingBox" gradientTransform="translate(0 0)"><stop id="eQIPobNwHtd58-fill-0" offset="0%" stop-color="#7d1230"/><stop id="eQIPobNwHtd58-fill-1" offset="100%" stop-color="rgba(125,18,48,0)"/></linearGradient><linearGradient id="eQIPobNwHtd60-fill" x1="0.362743" y1="0.117748" x2="0.503246" y2="0.610469" spreadMethod="pad" gradientUnits="objectBoundingBox" gradientTransform="translate(0 0)"><stop id="eQIPobNwHtd60-fill-0" offset="0%" stop-color="#000"/><stop id="eQIPobNwHtd60-fill-1" offset="100%" stop-color="rgba(0,0,0,0)"/></linearGradient><linearGradient id="eQIPobNwHtd62-fill" x1="0.499978" y1="0.609313" x2="0.532891" y2="-0.016803" spreadMethod="pad" gradientUnits="objectBoundingBox" gradientTransform="translate(0 0)"><stop id="eQIPobNwHtd62-fill-0" offset="0%" stop-color="#003b36"/><stop id="eQIPobNwHtd62-fill-1" offset="100%" stop-color="rgba(0,59,54,0)"/></linearGradient><linearGradient id="eQIPobNwHtd64-fill" x1="0.750138" y1="0.882539" x2="-0.094673" y2="-0.10332" spreadMethod="pad" gradientUnits="objectBoundingBox" gradientTransform="translate(0 0)"><stop id="eQIPobNwHtd64-fill-0" offset="0%" stop-color="#7d1230"/><stop id="eQIPobNwHtd64-fill-1" offset="100%" stop-color="rgba(125,18,48,0)"/></linearGradient><linearGradient id="eQIPobNwHtd67-fill" x1="1.683798" y1="1.633677" x2="0.328881" y2="0.334953" spreadMethod="pad" gradientUnits="objectBoundingBox" gradientTransform="translate(0 0)"><stop id="eQIPobNwHtd67-fill-0" offset="0%" stop-color="#000"/><stop id="eQIPobNwHtd67-fill-1" offset="100%" stop-color="rgba(0,0,0,0)"/></linearGradient><linearGradient id="eQIPobNwHtd68-fill" x1="1.934617" y1="1.23448" x2="-0.134821" y2="0.178992" spreadMethod="pad" gradientUnits="objectBoundingBox" gradientTransform="translate(0 0)"><stop id="eQIPobNwHtd68-fill-0" offset="0%" stop-color="#000"/><stop id="eQIPobNwHtd68-fill-1" offset="100%" stop-color="rgba(0,0,0,0)"/></linearGradient><linearGradient id="eQIPobNwHtd71-fill" x1="0.477863" y1="0.093662" x2="0.51809" y2="0.985171" spreadMethod="pad" gradientUnits="objectBoundingBox" gradientTransform="translate(0 0)"><stop id="eQIPobNwHtd71-fill-0" offset="0%" stop-color="#003b36"/><stop id="eQIPobNwHtd71-fill-1" offset="100%" stop-color="rgba(0,59,54,0)"/></linearGradient><linearGradient id="eQIPobNwHtd73-fill" x1="0.30757" y1="1.114314" x2="0.572691" y2="0.266941" spreadMethod="pad" gradientUnits="objectBoundingBox" gradientTransform="translate(0 0)"><stop id="eQIPobNwHtd73-fill-0" offset="0%" stop-color="#7d1230"/><stop id="eQIPobNwHtd73-fill-1" offset="100%" stop-color="rgba(125,18,48,0)"/></linearGradient><linearGradient id="eQIPobNwHtd76-fill" x1="1.159393" y1="1.362734" x2="0.57164" y2="0.624463" spreadMethod="pad" gradientUnits="objectBoundingBox" gradientTransform="translate(0 0)"><stop id="eQIPobNwHtd76-fill-0" offset="0%" stop-color="#7d1230"/><stop id="eQIPobNwHtd76-fill-1" offset="100%" stop-color="rgba(125,18,48,0)"/></linearGradient><linearGradient id="eQIPobNwHtd77-fill" x1="1.526664" y1="0.12303" x2="-0.023013" y2="0.879414" spreadMethod="pad" gradientUnits="objectBoundingBox" gradientTransform="translate(0 0)"><stop id="eQIPobNwHtd77-fill-0" offset="0%" stop-color="#7d1230"/><stop id="eQIPobNwHtd77-fill-1" offset="100%" stop-color="rgba(125,18,48,0)"/></linearGradient><linearGradient id="eQIPobNwHtd84-fill" x1="0.056843" y1="0.39839" x2="1.127272" y2="0.645008" spreadMethod="pad" gradientUnits="objectBoundingBox" gradientTransform="translate(0 0)"><stop id="eQIPobNwHtd84-fill-0" offset="0%" stop-color="#003b36"/><stop id="eQIPobNwHtd84-fill-1" offset="100%" stop-color="rgba(0,59,54,0)"/></linearGradient><linearGradient id="eQIPobNwHtd85-fill" x1="0.110558" y1="1.181491" x2="0.7192" y2="0.135734" spreadMethod="pad" gradientUnits="objectBoundingBox" gradientTransform="translate(0 0)"><stop id="eQIPobNwHtd85-fill-0" offset="0%" stop-color="#003b36"/><stop id="eQIPobNwHtd85-fill-1" offset="100%" stop-color="rgba(0,59,54,0)"/></linearGradient></defs><g><g><path d="M612.193876,411.776577c-2.674397,6.757732-5.835049,13.272672-9.481954,19.504354-1.175114,2.023273-2.390749,3.965616-3.687427,5.948423-18.639739,28.528154-47.571857,51.269745-82.663192,67.901051-45.059544,21.365766-100.289902,32.736562-156.816938,33.545871-59.363518.80931-120.226319-10.075901-172.336547-33.303078-2.674398-1.213964-5.389316-2.427928-8.104235-3.763288-.526775-.242793-1.094072-.526051-1.620847-.768844-.486254-.242793-1.013029-.485586-1.499283-.728378-4.457329-2.185135-8.955179-4.491667-13.534072-6.96006-.526775-.283259-1.094072-.606982-1.620847-.890241-.607817-.323723-1.175114-.647447-1.74241-.971171s-1.134593-.606982-1.661368-.930705c-.567297-.323724-1.134593-.647448-1.70189-.971172-4.011596-2.266066-8.023192-4.613063-12.034788-7.081456-.445733-.283258-.931987-.566517-1.37772-.849775-4.781498-2.953979-9.522475-5.988889-14.303974-9.226126-1.215635-.809309-2.43127-1.659084-3.687426-2.508859-.607818-.44512-1.256157-.849775-1.863974-1.294895-3.120131-2.185135-6.240261-4.410736-9.31987-6.676802-.607818-.44512-1.256156-.930705-1.863974-1.375825l-.405212-.283259c-1.094071-.849774-2.188143-1.659084-3.322736-2.508859l-.040521-.040465c-1.823453-1.375826-3.646906-2.792117-5.470358-4.248874-.607818-.485585-1.256157-.971171-1.863974-1.497222-.607818-.485586-1.215635-.971171-1.823453-1.456757-1.215635-.971171-2.43127-1.982808-3.606384-2.953979-1.782932-1.497222-3.565864-2.994444-5.348795-4.532132-2.552834-2.185135-5.105668-4.451201-7.617981-6.717267-.972508-.89024-1.945016-1.780481-2.917524-2.670721-2.877003-2.670721-5.713485-5.381907-8.509446-8.133558-30.107232-29.863514-54.500977-65.108934-64.752834-103.42973-4.214202-15.821997-6.037655-32.210511-4.862541-48.922748.32417-4.613063.891466-9.145195,1.620847-13.555931c5.470358-31.927252,21.921954-59.565165,46.599349-87.000751c27.432833-30.470495,64.99596-60.576801,109.001954-95.862687c58.06684-46.575751,97.45342-77.208108,152.03544-76.398799c40.075439.606982,73.140716,17.966666,102.072834,40.789189c18.801824,14.850826,35.820716,32.008183,51.907622,48.396697c11.021759,11.208934,26.419804,26.95,43.357654,45.928303c13.979805,15.660135,28.972639,33.545871,43.357655,52.969294c7.780065,10.480556,15.357525,21.446697,22.529772,32.696096c37.846775,59.605631,63.496678,128.558784,38.981368,190.835136Z" fill="#f8fafd"/><path d="M599.024495,437.188889c-18.639739,28.528153-47.571857,51.269745-82.663192,67.901051-45.059544,21.365766-100.289902,32.736562-156.816938,33.545871-63.982932-1.497222-125.615635-12.463364-172.336547-33.303078-2.674398-1.213964-5.389316-2.427928-8.104235-3.763289-.526775-.242792-1.094072-.526051-1.620847-.768843-.486254-.242793-1.013029-.485586-1.499283-.728379-4.457329-2.185135-8.955179-4.491666-13.534072-6.96006-.526775-.283258-1.094072-.606982-1.620847-.89024-.607817-.323724-1.175114-.647448-1.74241-.971171s-1.134593-.606982-1.661368-.930706c-.567297-.323724-1.134593-.647447-1.70189-.971171-4.011596-2.266066-8.023192-4.613063-12.034788-7.081457-.445733-.283258-.931987-.566516-1.37772-.849774-4.781498-2.953979-9.522475-5.988889-14.303974-9.226126-1.215635-.80931-2.43127-1.659085-3.687426-2.508859-.607818-.44512-1.256157-.849775-1.863974-1.294895-3.120131-2.185135-6.240261-4.410736-9.31987-6.676802-.607818-.44512-1.256156-.930706-1.863974-1.375826l-.405212-.283258c-1.094071-.809309-2.228664-1.659084-3.322736-2.508859l-.040521-.040465c-1.823453-1.375826-3.646906-2.792118-5.470358-4.248874-.607818-.485586-1.256157-.971171-1.863974-1.497223-.607818-.485585-1.215635-.971171-1.823453-1.456756-1.215635-.971171-2.43127-1.982808-3.606384-2.953979-1.782932-1.497223-3.565864-2.994445-5.348795-4.532132-2.552834-2.185136-5.105668-4.451202-7.617981-6.717268l-2.917524-2.67072c-2.877003-2.670721-5.713485-5.381907-8.509446-8.133559c82.136417,20.232733,122.211856,24.076952,205.60443,23.429505c77.800651-.606982,133.517264-4.046547,256.499022-6.87913c15.114398-.323723,40.723779-2.427928,66.576287-4.653528Z" fill="#e1ebf8"/><path d="M612.193876,411.776577c-2.674397,6.757732-5.835049,13.272672-9.481954,19.504354-1.175114,2.023273-2.390749,3.965616-3.687427,5.948423-18.639739,28.528154-47.571857,51.269745-82.663192,67.901051-122.292899,9.711712-270.843518-10.480555-388.39544-32.857958-1.215635-.809309-2.43127-1.659084-3.687427-2.508858-.607817-.445121-1.256156-.849775-1.863973-1.294895-3.120131-2.185135-6.240261-4.410736-9.31987-6.676802-.607818-.44512-1.256157-.930706-1.863974-1.375826l-.405212-.283258c-1.094071-.849775-2.188143-1.659084-3.322736-2.508859l-.040521-.040466c-1.823453-1.375825-3.646906-2.792117-5.470358-4.248873-.607818-.485586-1.256157-.971172-1.863974-1.497223-.607818-.485585-1.215636-.971171-1.823453-1.456756-1.215635-.971172-2.43127-1.982808-3.606384-2.953979-1.782932-1.497223-3.565864-2.994445-5.348795-4.532132-2.552834-2.185136-5.105668-4.451202-7.617981-6.717268l-2.917524-2.67072c-2.877003-2.670721-5.713486-5.381907-8.509446-8.133559-30.107232-29.863514-54.500978-65.108934-64.752834-103.42973c33.308404-33.586336,66.414202-54.749775,95.670488-68.588964c133.112052-63.045195,211.925733,12.261036,384.140717-40.060811c25.609381-7.769369,46.964039-16.469444,65.279609-25.007657c7.780065,10.480555,15.357524,21.446697,22.529772,32.696096c37.887296,59.565165,63.537199,128.518318,39.021889,190.79467Z" fill="none"/><g opacity="0.56"><path d="M5.551401,76.03461c5.227231,2.994444,14.060847,2.387462,21.719348-2.670721c7.617981-5.058183,8.63101-1.33536,9.765603.566516c0,0,11.386449,17.278754,20.827882,12.787087C70.385277,80.769069,73.140717,64.906607,73.545928,62.64054c.769903-4.37027-2.188143-4.936786-2.188143-4.936786s-11.791661,10.035435-20.503713,9.509384c-2.471792-.161862-2.06658-2.670721-.445733-3.196772c1.620847-.485585,10.616547-1.213964,14.222931-4.451201c3.606385-3.277702,8.387883-11.128003,8.590489-13.677327.486254-6.06982-3.646906-10.601952-3.646906-10.601952s-7.293811,5.665165-10.535504,9.10473c-3.282215,3.439564-8.63101,6.393543-9.481955,5.26051-.68886-.930706.607818-2.063739,3.4443-4.248874C54.58202,44.188288,68.926515,34.759835,68.642866,30.43003c-.243127-4.167943-7.374853-11.532658-8.347361-11.937312s-10.292378,16.752702-12.07531,14.243844c-1.782931-2.468394,8.185277-13.070346,9.157786-14.810361c1.74241-3.03491-.445733-8.093093-1.37772-9.54985-1.904495-2.953979-6.483388-7.040991-7.131727-7.890765s-9.644039,4.167943-10.900195,6.393543-1.01303,7.567042-.283648,8.578679s2.228664,8.416817.040521,6.676802C35.57759,20.354129,33.551531,8.376351,33.551531,7.728904c-.040521-.647447-7.25329,5.017718-9.279349,6.717267-1.620846,1.335361-3.971074,5.948424.121564,10.561487c5.389316,6.06982,8.955179,9.752177,8.428404,13.434534-.68886,4.896322-9.806124-8.821471-10.454463-11.006606-.68886-2.185135-2.43127-4.006081-3.282215-6.676802C18.234528,18.047598,0,39.656156,7.374853,43.419444c7.334333,3.763289,12.602085,2.185136,14.060847,5.139115s-.769902,4.613063-3.444299,2.266066C14.87127,48.072973,9.157785,45.685511,5.835049,44.35015c-2.917525-1.213964-7.050684,14.162913-4.943583,17.076427s13.615114.161861,16.492117.971171s4.49785,4.896321,1.499283,4.087012-11.183843-4.127478-17.383583-1.375826c-.081042.040465-1.215635,7.971697,4.052118,10.925676ZM51.583453,33.46494c2.877003-1.011637.729381,3.520495-1.337199,4.127477-1.418241.404655-2.188143-.202327-1.499283-1.578153.324169-.526051,2.309707-2.306531,2.836482-2.549324ZM41.169511,31.805856c.202606-1.011637,1.134593-1.375826,1.782932-.485586.243127.364189.729381,2.063739.729381,2.468394-.324169,2.063738-2.795961-.526051-2.512313-1.982808ZM54.865668,53.252553c-.162085,2.266066-6.848078,2.994444-5.51088.930705.810424-.930705,5.794528-4.491666,5.51088-.930705ZM33.348925,41.841291c1.337199-.404654,3.80899,2.14467,4.659935,3.075376.648339.526051,1.296678,1.33536,1.701889,1.942342.567297.809309.972508,1.497222.243127,1.69955-1.661368.161861-4.578892-1.497223-6.078176-2.306532-1.256156-.728378-2.714918-3.682357-.526775-4.410736ZM27.270749,52.726502c1.539805-.080931,4.13316,1.537687,5.227232,2.346997c1.782931,1.254429,6.118697,4.451201,1.580325,3.277702h-.040521c-2.06658-.485585-4.700456-.768844-6.56443-1.982808-1.701889-.849774-3.079609-3.358633-.202606-3.641891Z" transform="translate(509.756 336.268)" fill="url(#eQIPobNwHtd8-fill)"/><path d="M5.551401,76.03461c5.227231,2.994444,14.060847,2.387462,21.719348-2.670721c7.617981-5.058183,8.63101-1.33536,9.765603.566516c0,0,11.386449,17.278754,20.827882,12.787087C70.385277,80.769069,73.140717,64.906607,73.545928,62.64054c.769903-4.37027-2.188143-4.936786-2.188143-4.936786s-11.791661,10.035435-20.503713,9.509384c-2.471792-.161862-2.06658-2.670721-.445733-3.196772c1.620847-.485585,10.616547-1.213964,14.222931-4.451201c3.606385-3.277702,8.387883-11.128003,8.590489-13.677327.486254-6.06982-3.646906-10.601952-3.646906-10.601952s-7.293811,5.665165-10.535504,9.10473c-3.282215,3.439564-8.63101,6.393543-9.481955,5.26051-.68886-.930706.607818-2.063739,3.4443-4.248874C54.58202,44.188288,68.926515,34.759835,68.642866,30.43003c-.243127-4.167943-7.374853-11.532658-8.347361-11.937312s-10.292378,16.752702-12.07531,14.243844c-1.782931-2.468394,8.185277-13.070346,9.157786-14.810361c1.74241-3.03491-.445733-8.093093-1.37772-9.54985-1.904495-2.953979-6.483388-7.040991-7.131727-7.890765s-9.644039,4.167943-10.900195,6.393543-1.01303,7.567042-.283648,8.578679s2.228664,8.416817.040521,6.676802C35.57759,20.354129,33.551531,8.376351,33.551531,7.728904c-.040521-.647447-7.25329,5.017718-9.279349,6.717267-1.620846,1.335361-3.971074,5.948424.121564,10.561487c5.389316,6.06982,8.955179,9.752177,8.428404,13.434534-.68886,4.896322-9.806124-8.821471-10.454463-11.006606-.68886-2.185135-2.43127-4.006081-3.282215-6.676802C18.234528,18.047598,0,39.656156,7.374853,43.419444c7.334333,3.763289,12.602085,2.185136,14.060847,5.139115s-.769902,4.613063-3.444299,2.266066C14.87127,48.072973,9.157785,45.685511,5.835049,44.35015c-2.917525-1.213964-7.050684,14.162913-4.943583,17.076427s13.615114.161861,16.492117.971171s4.49785,4.896321,1.499283,4.087012-11.183843-4.127478-17.383583-1.375826c-.081042.040465-1.215635,7.971697,4.052118,10.925676ZM51.583453,33.46494c2.877003-1.011637.729381,3.520495-1.337199,4.127477-1.418241.404655-2.188143-.202327-1.499283-1.578153.324169-.526051,2.309707-2.306531,2.836482-2.549324ZM41.169511,31.805856c.202606-1.011637,1.134593-1.375826,1.782932-.485586.243127.364189.729381,2.063739.729381,2.468394-.324169,2.063738-2.795961-.526051-2.512313-1.982808ZM54.865668,53.252553c-.162085,2.266066-6.848078,2.994444-5.51088.930705.810424-.930705,5.794528-4.491666,5.51088-.930705ZM33.348925,41.841291c1.337199-.404654,3.80899,2.14467,4.659935,3.075376.648339.526051,1.296678,1.33536,1.701889,1.942342.567297.809309.972508,1.497222.243127,1.69955-1.661368.161861-4.578892-1.497223-6.078176-2.306532-1.256156-.728378-2.714918-3.682357-.526775-4.410736ZM27.270749,52.726502c1.539805-.080931,4.13316,1.537687,5.227232,2.346997c1.782931,1.254429,6.118697,4.451201,1.580325,3.277702h-.040521c-2.06658-.485585-4.700456-.768844-6.56443-1.982808-1.701889-.849774-3.079609-3.358633-.202606-3.641891Z" transform="translate(509.756 336.268)" fill="url(#eQIPobNwHtd9-fill)"/></g><g transform="translate(81.8528 348.003)"><path d="M17.586189,21.082508c1.256156,1.982807,13.412508,13.960585,11.426971,16.95503s-13.736678-16.712238-14.83075-16.186187-9.157785,9.509385-9.238827,14.405706C4.82202,41.355706,22.084039,51.75533,23.988534,53.090691c3.4443,2.427928,4.984104,3.722823,4.254723,4.81539-.931987,1.375826-7.374853-1.820946-11.345928-5.746096C12.926254,48.2753,4.092638,41.962688,4.092638,41.962688s-4.659934,5.503303-3.80899,12.625225c.364691,2.994444,6.321303,12.018243,10.69759,15.660135c4.416808,3.641892,14.992834,4.087012,16.897329,4.613063c1.945016.526051,2.512313,3.48003-.364691,3.763288C17.302541,79.636036,3.039088,68.386637,3.039088,68.386637s-3.484821.768844-2.350228,5.867492c.567296,2.630255,4.538371,21.122973,19.490684,27.516517c11.264886,4.855856,23.866971-15.943394,23.866971-15.943394c1.215635-2.266066,2.228664-6.676801,11.42697-1.092567c9.198307,5.543769,19.612248,5.867492,25.609381,2.144669C87.08,83.116066,85.418632,73.88994,85.418632,73.88994c-7.415375-2.953979-16.856808,1.33536-20.341629,2.387462-3.484821,1.092568-1.74241-3.803753,1.580326-4.855855c3.322736-1.092568,16.978371,1.618618,19.328599-1.861412c2.309707-3.520495-3.201172-21.365766-6.604951-19.828078-3.849511,1.740015-10.454462,4.774925-13.979804,8.174024-3.039088,2.873048-5.713486,1.011637-4.173681-2.508859c1.580326-3.520495,7.820586-1.901877,16.289511-6.676802s-13.939283-29.256531-14.790228-26.059759-2.836482,5.422372-3.525342,8.012162c-.68886,2.549324-10.73811,19.059234-11.791661,13.394069-.769902-4.289339,3.201173-8.740541,9.279349-16.145721c4.619413-5.624699,1.620846-10.925675-.32417-12.422898-2.471791-1.901877-11.224365-8.214489-11.224365-7.486111c0,.768844-1.823452,14.931757-4.254723,17.116892s-1.05355-6.595871-.243127-7.809835.850945-7.526576-.729381-10.075901-12.399479-8.093093-13.088339-7.040991-5.87557,6.06982-7.982671,9.590316c-1.094071,1.740015-3.403778,7.809835-1.256156,11.289865ZM48.503844,63.44985c1.215635-.971171,4.17368-3.03491,6.037654-2.994445c3.403779.202328,1.863974,3.237238-.040521,4.28934-2.147622,1.456756-5.267752,1.942342-7.61798,2.58979h-.040521c-5.308274,1.618618-.364691-2.306532,1.661368-3.884685Zm-8.833616-9.307057c.445733-.728379,1.175114-1.69955,1.904495-2.346997.931987-1.133033,3.768469-4.248874,5.308274-3.844219c2.593355.728378,1.013029,4.248873-.405212,5.179579-1.701889,1.011637-5.105668,3.075375-7.010163,2.994445h-.040521c-.850945-.161862-.405212-1.011637.243127-1.982808ZM22.165081,62.357282c-.486254-4.167943,5.51088-.242792,6.523909.849775c1.661368,2.346997-6.24026,1.820946-6.523909-.849775ZM37.238958,36.540315c.405211,1.69955-2.39075,4.896322-2.836482,2.427928-.040522-.44512.445733-2.468393.729381-2.913513.729381-1.092568,1.863974-.687913,2.107101.485585Zm-8.671531,5.300976c.891465,1.578153,0,2.346997-1.70189,1.901877-2.471791-.606982-5.18671-5.827027-1.74241-4.774925.607818.283258,3.039088,2.225601,3.4443,2.873048Z" fill="url(#eQIPobNwHtd11-fill)"/><path d="M17.586189,21.082508c1.256156,1.982807,13.412508,13.960585,11.426971,16.95503s-13.736678-16.712238-14.83075-16.186187-9.157785,9.509385-9.238827,14.405706C4.82202,41.355706,22.084039,51.75533,23.988534,53.090691c3.4443,2.427928,4.984104,3.722823,4.254723,4.81539-.931987,1.375826-7.374853-1.820946-11.345928-5.746096C12.926254,48.2753,4.092638,41.962688,4.092638,41.962688s-4.659934,5.503303-3.80899,12.625225c.364691,2.994444,6.321303,12.018243,10.69759,15.660135c4.416808,3.641892,14.992834,4.087012,16.897329,4.613063c1.945016.526051,2.512313,3.48003-.364691,3.763288C17.302541,79.636036,3.039088,68.386637,3.039088,68.386637s-3.484821.768844-2.350228,5.867492c.567296,2.630255,4.538371,21.122973,19.490684,27.516517c11.264886,4.855856,23.866971-15.943394,23.866971-15.943394c1.215635-2.266066,2.228664-6.676801,11.42697-1.092567c9.198307,5.543769,19.612248,5.867492,25.609381,2.144669C87.08,83.116066,85.418632,73.88994,85.418632,73.88994c-7.415375-2.953979-16.856808,1.33536-20.341629,2.387462-3.484821,1.092568-1.74241-3.803753,1.580326-4.855855c3.322736-1.092568,16.978371,1.618618,19.328599-1.861412c2.309707-3.520495-3.201172-21.365766-6.604951-19.828078-3.849511,1.740015-10.454462,4.774925-13.979804,8.174024-3.039088,2.873048-5.713486,1.011637-4.173681-2.508859c1.580326-3.520495,7.820586-1.901877,16.289511-6.676802s-13.939283-29.256531-14.790228-26.059759-2.836482,5.422372-3.525342,8.012162c-.68886,2.549324-10.73811,19.059234-11.791661,13.394069-.769902-4.289339,3.201173-8.740541,9.279349-16.145721c4.619413-5.624699,1.620846-10.925675-.32417-12.422898-2.471791-1.901877-11.224365-8.214489-11.224365-7.486111c0,.768844-1.823452,14.931757-4.254723,17.116892s-1.05355-6.595871-.243127-7.809835.850945-7.526576-.729381-10.075901-12.399479-8.093093-13.088339-7.040991-5.87557,6.06982-7.982671,9.590316c-1.094071,1.740015-3.403778,7.809835-1.256156,11.289865ZM48.503844,63.44985c1.215635-.971171,4.17368-3.03491,6.037654-2.994445c3.403779.202328,1.863974,3.237238-.040521,4.28934-2.147622,1.456756-5.267752,1.942342-7.61798,2.58979h-.040521c-5.308274,1.618618-.364691-2.306532,1.661368-3.884685Zm-8.833616-9.307057c.445733-.728379,1.175114-1.69955,1.904495-2.346997.931987-1.133033,3.768469-4.248874,5.308274-3.844219c2.593355.728378,1.013029,4.248873-.405212,5.179579-1.701889,1.011637-5.105668,3.075375-7.010163,2.994445h-.040521c-.850945-.161862-.405212-1.011637.243127-1.982808ZM22.165081,62.357282c-.486254-4.167943,5.51088-.242792,6.523909.849775c1.661368,2.346997-6.24026,1.820946-6.523909-.849775ZM37.238958,36.540315c.405211,1.69955-2.39075,4.896322-2.836482,2.427928-.040522-.44512.445733-2.468393.729381-2.913513.729381-1.092568,1.863974-.687913,2.107101.485585Zm-8.671531,5.300976c.891465,1.578153,0,2.346997-1.70189,1.901877-2.471791-.606982-5.18671-5.827027-1.74241-4.774925.607818.283258,3.039088,2.225601,3.4443,2.873048Z" opacity="0.56" fill="url(#eQIPobNwHtd12-fill)"/></g><g opacity="0.56"><path d="M5.551401,76.03461c5.227231,2.994444,14.060847,2.387462,21.719348-2.670721c7.617981-5.058183,8.63101-1.33536,9.765603.566516c0,0,11.386449,17.278754,20.827882,12.787087C70.385277,80.769069,73.140717,64.906607,73.545928,62.64054c.769903-4.37027-2.188143-4.936786-2.188143-4.936786s-11.791661,10.035435-20.503713,9.509384c-2.471792-.161862-2.06658-2.670721-.445733-3.196772c1.620847-.485585,10.616547-1.213964,14.222931-4.451201c3.606385-3.277702,8.387883-11.128003,8.590489-13.677327.486254-6.06982-3.646906-10.601952-3.646906-10.601952s-7.293811,5.665165-10.535504,9.10473c-3.282215,3.439564-8.63101,6.393543-9.481955,5.26051-.68886-.930706.607818-2.063739,3.4443-4.248874C54.58202,44.188288,68.926515,34.759835,68.642866,30.43003c-.243127-4.167943-7.374853-11.532658-8.347361-11.937312s-10.292378,16.752702-12.07531,14.243844c-1.782931-2.468394,8.185277-13.070346,9.157786-14.810361c1.74241-3.03491-.445733-8.093093-1.37772-9.54985-1.904495-2.953979-6.483388-7.040991-7.131727-7.890765s-9.644039,4.167943-10.900195,6.393543-1.01303,7.567042-.283648,8.578679s2.228664,8.416817.040521,6.676802C35.57759,20.354129,33.551531,8.376351,33.551531,7.728904c-.040521-.647447-7.25329,5.017718-9.279349,6.717267-1.620846,1.335361-3.971074,5.948424.121564,10.561487c5.389316,6.06982,8.955179,9.752177,8.428404,13.434534-.68886,4.896322-9.806124-8.821471-10.454463-11.006606-.68886-2.185135-2.43127-4.006081-3.282215-6.676802C18.234528,18.047598,0,39.656156,7.374853,43.419444c7.334333,3.763289,12.602085,2.185136,14.060847,5.139115s-.769902,4.613063-3.444299,2.266066C14.87127,48.072973,9.157785,45.685511,5.835049,44.35015c-2.917525-1.213964-7.050684,14.162913-4.943583,17.076427s13.615114.161861,16.492117.971171s4.49785,4.896321,1.499283,4.087012-11.183843-4.127478-17.383583-1.375826c-.081042.040465-1.215635,7.971697,4.052118,10.925676ZM51.583453,33.46494c2.877003-1.011637.729381,3.520495-1.337199,4.127477-1.418241.404655-2.188143-.202327-1.499283-1.578153.324169-.526051,2.309707-2.306531,2.836482-2.549324ZM41.169511,31.805856c.202606-1.011637,1.134593-1.375826,1.782932-.485586.243127.364189.729381,2.063739.729381,2.468394-.324169,2.063738-2.795961-.526051-2.512313-1.982808ZM54.865668,53.252553c-.162085,2.266066-6.848078,2.994444-5.51088.930705.810424-.930705,5.794528-4.491666,5.51088-.930705ZM33.348925,41.841291c1.337199-.404654,3.80899,2.14467,4.659935,3.075376.648339.526051,1.296678,1.33536,1.701889,1.942342.567297.809309.972508,1.497222.243127,1.69955-1.661368.161861-4.578892-1.497223-6.078176-2.306532-1.256156-.728378-2.714918-3.682357-.526775-4.410736ZM27.270749,52.726502c1.539805-.080931,4.13316,1.537687,5.227232,2.346997c1.782931,1.254429,6.118697,4.451201,1.580325,3.277702h-.040521c-2.06658-.485585-4.700456-.768844-6.56443-1.982808-1.701889-.849774-3.079609-3.358633-.202606-3.641891Z" transform="translate(296.615 320.486)" fill="url(#eQIPobNwHtd14-fill)"/><path d="M5.551401,76.03461c5.227231,2.994444,14.060847,2.387462,21.719348-2.670721c7.617981-5.058183,8.63101-1.33536,9.765603.566516c0,0,11.386449,17.278754,20.827882,12.787087C70.385277,80.769069,73.140717,64.906607,73.545928,62.64054c.769903-4.37027-2.188143-4.936786-2.188143-4.936786s-11.791661,10.035435-20.503713,9.509384c-2.471792-.161862-2.06658-2.670721-.445733-3.196772c1.620847-.485585,10.616547-1.213964,14.222931-4.451201c3.606385-3.277702,8.387883-11.128003,8.590489-13.677327.486254-6.06982-3.646906-10.601952-3.646906-10.601952s-7.293811,5.665165-10.535504,9.10473c-3.282215,3.439564-8.63101,6.393543-9.481955,5.26051-.68886-.930706.607818-2.063739,3.4443-4.248874C54.58202,44.188288,68.926515,34.759835,68.642866,30.43003c-.243127-4.167943-7.374853-11.532658-8.347361-11.937312s-10.292378,16.752702-12.07531,14.243844c-1.782931-2.468394,8.185277-13.070346,9.157786-14.810361c1.74241-3.03491-.445733-8.093093-1.37772-9.54985-1.904495-2.953979-6.483388-7.040991-7.131727-7.890765s-9.644039,4.167943-10.900195,6.393543-1.01303,7.567042-.283648,8.578679s2.228664,8.416817.040521,6.676802C35.57759,20.354129,33.551531,8.376351,33.551531,7.728904c-.040521-.647447-7.25329,5.017718-9.279349,6.717267-1.620846,1.335361-3.971074,5.948424.121564,10.561487c5.389316,6.06982,8.955179,9.752177,8.428404,13.434534-.68886,4.896322-9.806124-8.821471-10.454463-11.006606-.68886-2.185135-2.43127-4.006081-3.282215-6.676802C18.234528,18.047598,0,39.656156,7.374853,43.419444c7.334333,3.763289,12.602085,2.185136,14.060847,5.139115s-.769902,4.613063-3.444299,2.266066C14.87127,48.072973,9.157785,45.685511,5.835049,44.35015c-2.917525-1.213964-7.050684,14.162913-4.943583,17.076427s13.615114.161861,16.492117.971171s4.49785,4.896321,1.499283,4.087012-11.183843-4.127478-17.383583-1.375826c-.081042.040465-1.215635,7.971697,4.052118,10.925676ZM51.583453,33.46494c2.877003-1.011637.729381,3.520495-1.337199,4.127477-1.418241.404655-2.188143-.202327-1.499283-1.578153.324169-.526051,2.309707-2.306531,2.836482-2.549324ZM41.169511,31.805856c.202606-1.011637,1.134593-1.375826,1.782932-.485586.243127.364189.729381,2.063739.729381,2.468394-.324169,2.063738-2.795961-.526051-2.512313-1.982808ZM54.865668,53.252553c-.162085,2.266066-6.848078,2.994444-5.51088.930705.810424-.930705,5.794528-4.491666,5.51088-.930705ZM33.348925,41.841291c1.337199-.404654,3.80899,2.14467,4.659935,3.075376.648339.526051,1.296678,1.33536,1.701889,1.942342.567297.809309.972508,1.497222.243127,1.69955-1.661368.161861-4.578892-1.497223-6.078176-2.306532-1.256156-.728378-2.714918-3.682357-.526775-4.410736ZM27.270749,52.726502c1.539805-.080931,4.13316,1.537687,5.227232,2.346997c1.782931,1.254429,6.118697,4.451201,1.580325,3.277702h-.040521c-2.06658-.485585-4.700456-.768844-6.56443-1.982808-1.701889-.849774-3.079609-3.358633-.202606-3.641891Z" transform="translate(296.615 320.486)" fill="url(#eQIPobNwHtd15-fill)"/></g><g opacity="0.56"><path d="M17.707752,87.284009c6.037655.242793,13.615114-4.329805,18.072443-12.301501s7.050684-5.139115,8.914658-3.965616c0,0,18.031922,10.156832,24.393746,1.820946c8.387883-11.006607,3.525342-26.383484,2.877004-28.568619-1.296678-4.248874-4.214202-3.358633-4.214202-3.358633s-5.87557,14.284309-13.81772,17.84527c-2.269186,1.011636-3.079609-1.416291-1.863974-2.630255c1.215635-1.173499,8.874137-5.948424,10.576026-10.480556c1.701889-4.572598,2.350228-13.717793,1.337199-16.105255-2.350228-5.6247-8.104235-7.76937-8.104235-7.76937s-3.849511,8.376352-5.18671,12.948949c-1.296678,4.572598-4.740977,9.630781-5.997134,9.023799-1.013029-.485585-.405211-2.104204,1.094072-5.341441.850945-1.820946,9.238827-16.752703,7.010163-20.475526-2.147622-3.601426-11.872704-6.879129-12.926254-6.798198s-1.458762,19.585285-4.173681,18.209459s1.256156-15.376876,1.337199-17.359684c.162085-3.48003-4.13316-7.000526-5.632443-7.850301-3.039088-1.740015-8.9957-3.277702-9.968209-3.763288s-6.645472,8.133559-6.726514,10.682883c-.121564,2.549324,2.552834,7.202853,3.687426,7.769369s5.835049,6.474475,3.120131,5.907958-10.00873-10.318693-10.332899-10.88521-4.13316,7.809835-5.18671,10.237763c-.810424,1.901877-.810424,7.121922,4.984104,9.347522c7.577459,2.913514,12.44,4.572598,13.655635,8.052628c1.620847,4.653529-12.764169-3.358634-14.344495-4.977252s-4.011596-2.427928-5.997134-4.451201-8.266319,25.533708,0,25.493243c8.26632,0,12.237394-3.844219,14.871271-1.901877s1.418241,4.451201-2.026059,3.601426c-4.011596-1.011636-10.170814-.526051-13.777199-.202327-3.160651.283258.243127,15.821997,3.4443,17.481081c3.201173,1.618619,12.156352-6.110285,15.114397-6.717267c2.917525-.606982,6.240261,2.266066,3.201173,2.953979-3.039088.647447-11.832182,1.456757-16.086905,6.757733c0-.040466,2.633876,7.486111,8.67153,7.769369ZM39.021889,28.366291c2.107101-2.2256,2.269186,2.792117.729381,4.28934-1.05355,1.011636-2.066579.849774-2.066579-.728379.040521-.647447,1.013029-3.115841,1.337198-3.560961ZM29.01316,31.603529c-.283649-.971172.36469-1.740015,1.337198-1.25443.364691.242793,1.580326,1.497222,1.742411,1.861411.729381,2.023274-2.633877.849775-3.079609-.606981ZM51.056678,44.431081c.891465,2.104204-4.700456,5.786562-4.457329,3.358634.283648-1.25443,3.079609-6.676802,4.457329-3.358634Zm-24.353225-.283258c.972508-.971171,4.376286.161862,5.5514.606982.810424.161862,1.742411.606982,2.39075.930706.891465.485585,1.580325.89024,1.013029,1.375825-1.37772.890241-4.740977.768844-6.442866.728379-1.499284-.080931-4.13316-2.023274-2.512313-3.641892Zm-.405212,12.422898c1.337199-.768844,4.416808-.526051,5.713485-.283258c2.147623.283258,7.455896,1.133033,2.917525,2.185135h-.040521c-2.06658.485585-4.538372,1.456756-6.767036,1.254429-1.863974.040466-4.254723-1.537688-1.823453-3.156306Z" transform="translate(176.672 352.454)" fill="url(#eQIPobNwHtd17-fill)"/><path d="M17.707752,87.284009c6.037655.242793,13.615114-4.329805,18.072443-12.301501s7.050684-5.139115,8.914658-3.965616c0,0,18.031922,10.156832,24.393746,1.820946c8.387883-11.006607,3.525342-26.383484,2.877004-28.568619-1.296678-4.248874-4.214202-3.358633-4.214202-3.358633s-5.87557,14.284309-13.81772,17.84527c-2.269186,1.011636-3.079609-1.416291-1.863974-2.630255c1.215635-1.173499,8.874137-5.948424,10.576026-10.480556c1.701889-4.572598,2.350228-13.717793,1.337199-16.105255-2.350228-5.6247-8.104235-7.76937-8.104235-7.76937s-3.849511,8.376352-5.18671,12.948949c-1.296678,4.572598-4.740977,9.630781-5.997134,9.023799-1.013029-.485585-.405211-2.104204,1.094072-5.341441.850945-1.820946,9.238827-16.752703,7.010163-20.475526-2.147622-3.601426-11.872704-6.879129-12.926254-6.798198s-1.458762,19.585285-4.173681,18.209459s1.256156-15.376876,1.337199-17.359684c.162085-3.48003-4.13316-7.000526-5.632443-7.850301-3.039088-1.740015-8.9957-3.277702-9.968209-3.763288s-6.645472,8.133559-6.726514,10.682883c-.121564,2.549324,2.552834,7.202853,3.687426,7.769369s5.835049,6.474475,3.120131,5.907958-10.00873-10.318693-10.332899-10.88521-4.13316,7.809835-5.18671,10.237763c-.810424,1.901877-.810424,7.121922,4.984104,9.347522c7.577459,2.913514,12.44,4.572598,13.655635,8.052628c1.620847,4.653529-12.764169-3.358634-14.344495-4.977252s-4.011596-2.427928-5.997134-4.451201-8.266319,25.533708,0,25.493243c8.26632,0,12.237394-3.844219,14.871271-1.901877s1.418241,4.451201-2.026059,3.601426c-4.011596-1.011636-10.170814-.526051-13.777199-.202327-3.160651.283258.243127,15.821997,3.4443,17.481081c3.201173,1.618619,12.156352-6.110285,15.114397-6.717267c2.917525-.606982,6.240261,2.266066,3.201173,2.953979-3.039088.647447-11.832182,1.456757-16.086905,6.757733c0-.040466,2.633876,7.486111,8.67153,7.769369ZM39.021889,28.366291c2.107101-2.2256,2.269186,2.792117.729381,4.28934-1.05355,1.011636-2.066579.849774-2.066579-.728379.040521-.647447,1.013029-3.115841,1.337198-3.560961ZM29.01316,31.603529c-.283649-.971172.36469-1.740015,1.337198-1.25443.364691.242793,1.580326,1.497222,1.742411,1.861411.729381,2.023274-2.633877.849775-3.079609-.606981ZM51.056678,44.431081c.891465,2.104204-4.700456,5.786562-4.457329,3.358634.283648-1.25443,3.079609-6.676802,4.457329-3.358634Zm-24.353225-.283258c.972508-.971171,4.376286.161862,5.5514.606982.810424.161862,1.742411.606982,2.39075.930706.891465.485585,1.580325.89024,1.013029,1.375825-1.37772.890241-4.740977.768844-6.442866.728379-1.499284-.080931-4.13316-2.023274-2.512313-3.641892Zm-.405212,12.422898c1.337199-.768844,4.416808-.526051,5.713485-.283258c2.147623.283258,7.455896,1.133033,2.917525,2.185135h-.040521c-2.06658.485585-4.538372,1.456756-6.767036,1.254429-1.863974.040466-4.254723-1.537688-1.823453-3.156306Z" transform="translate(176.672 352.454)" fill="url(#eQIPobNwHtd18-fill)"/></g><ellipse rx="172.418" ry="20.0304" transform="translate(323.156 464.746)" fill="#d2e1f6"/></g><g id="eQIPobNwHtd20_to" transform="translate(-278.548803,210.351806)"><g id="eQIPobNwHtd20_tr" transform="rotate(4.390692)"><g transform="translate(0,0)"><ellipse rx="47.3152" ry="47.25" transform="translate(281.667 124.183)" fill="none" fill-rule="evenodd" stroke="#e1ebf8" stroke-width="3"/><ellipse rx="47.3152" ry="47.25" transform="translate(67.3331 124.587)" fill="none" fill-rule="evenodd" stroke="#e1ebf8" stroke-width="3"/><path d="M239.002317,35.942308h66.726535v2.826923h-66.726535Z" fill="#001916"/><path d="M275.39861,37.153846h-2.830823v6.501923c0,.646154-.444844,1.211539-1.051449,1.332692l-35.344843,8.359616.647045,2.746154l35.344844-8.359616c1.941135-.44423,3.275666-2.180769,3.275666-4.159615l-.04044-6.421154Z" fill="#001916"/><path d="M163.176709,118.730769l2.830823-51.288461-27.863384,7.067307l2.385979,58.759616Z" fill="#02bfae"/><path d="M163.176709,118.730769l2.830823-51.288461-27.863384,7.067307l2.385979,58.759616Z" opacity="0.5" fill="url(#eQIPobNwHtd26-fill)"/><g><path d="M141.136732,140.215385l2.022016-16.194231l19.047393-3.15c0,0,4.529316,7.35,12.051217,11.428846c3.841831,2.059615,8.73511,2.342308,12.617381,2.1c4.448436-.282692,8.815991,1.332692,11.970336,4.482692l-5.297682,3.190385-21.676014,4.442308c.04044-.040385-26.326652-2.1-30.734647-6.3Z" fill="#003b36"/><path d="M199.653882,140.578846c0,0-11.444612,5.573077-20.058401,6.3-8.61379.686539-38.458749,2.746154-38.458749,2.746154v-9.45c0,0,10.393163.767308,21.514253,2.140385s14.518076,2.1,20.301043.646154s15.933487-4.119231,15.933487-4.119231l.768366,1.736538Z" fill="#001916"/></g><path d="M67.33314,59.365385c-35.830127,0-64.90672,29.036538-64.90672,64.817307s29.076593,64.817308,64.90672,64.817308s64.906721-29.036538,64.906721-64.817308-29.076593-64.817307-64.906721-64.817307Zm0,122.76923c-32.069177,0-58.031865-25.967307-58.031865-57.951923s26.003128-57.951923,58.031865-57.951923s58.031866,25.967308,58.031866,57.951923-25.962688,57.951923-58.031866,57.951923ZM281.66686,59.365385c-35.830128,0-64.906721,29.036538-64.906721,64.817307s29.076593,64.817308,64.906721,64.817308s64.906721-29.036538,64.906721-64.817308-29.076594-64.817307-64.906721-64.817307Zm0,122.76923c-32.069177,0-58.031866-25.967307-58.031866-57.951923s26.003129-57.951923,58.031866-57.951923s58.031865,25.967308,58.031865,57.951923-25.962688,57.951923-58.031865,57.951923Z" fill="#003b36"/><path d="M67.33314,59.365385c-35.830127,0-64.90672,29.036538-64.90672,64.817307s29.076593,64.817308,64.90672,64.817308s64.906721-29.036538,64.906721-64.817308-29.076593-64.817307-64.906721-64.817307Zm0,122.76923c-32.069177,0-58.031865-25.967307-58.031865-57.951923s26.003128-57.951923,58.031865-57.951923s58.031866,25.967308,58.031866,57.951923-25.962688,57.951923-58.031866,57.951923ZM281.66686,59.365385c-35.830128,0-64.906721,29.036538-64.906721,64.817307s29.076593,64.817308,64.906721,64.817308s64.906721-29.036538,64.906721-64.817308-29.076594-64.817307-64.906721-64.817307Zm0,122.76923c-32.069177,0-58.031866-25.967307-58.031866-57.951923s26.003129-57.951923,58.031866-57.951923s58.031865,25.967308,58.031865,57.951923-25.962688,57.951923-58.031865,57.951923Z" opacity="0.5" fill="url(#eQIPobNwHtd31-fill)"/><path d="M281.66686,53.307692c-30.087602,0-55.928969,18.294231-66.928737,44.382693-1.051449,2.503846.808806,5.290384,3.558748,5.290384c1.536733,0,2.952144-.928846,3.558749-2.382692c9.826999-23.301923,32.918424-39.617308,59.81124-39.617308s49.984241,16.355769,59.81124,39.617308c.606605,1.413461,1.981576,2.382692,3.558748,2.382692c2.749942,0,4.610197-2.786538,3.558749-5.290384-10.999768-26.088462-36.841136-44.382693-66.928737-44.382693Zm-214.33372,0c-30.087601,0-55.928969,18.294231-66.928737,44.382693-1.051448,2.503846.808807,5.290384,3.558749,5.290384c1.536732,0,2.952143-.928846,3.558748-2.382692c9.826999-23.301923,32.918424-39.617308,59.81124-39.617308c27.822943,0,51.520974,17.446154,60.781808,42h8.168945C126.699537,74.146154,99.442758,53.307692,67.33314,53.307692Z" fill="#c3d7f2"/><path d="M138.30591,23.826923h90.181924v5.653846h-90.181924Z" fill="#7d1230"/><path d="M178.341831,23.826923h50.146002v5.653846h-50.146002Z" fill="url(#eQIPobNwHtd34-fill)"/><path d="M122.615064,33.923077l-7.804983,13.488462-42.785863,74.065384-1.941136,3.311539-4.084472-2.382693-.808807-.444231l44.84832-77.578846l7.683661-13.286538Z" fill="#7d1230"/><path d="M151.732097,129.957692l-.606605,5.613462-3.235225-.323077-80.840209-8.359615.525724-4.846154.080881-.767308l3.073465.323077l79.950521,8.238461Z" fill="#7d1230"/><path d="M150.680649,129.836538l-2.790382,5.411539-80.840209-8.359615.525724-4.846154l3.154346-.444231Z" opacity="0.64" fill="url(#eQIPobNwHtd37-fill)"/><ellipse rx="5.45944" ry="5.45192" transform="translate(67.3331 124.183)" fill="#003b36"/><path d="M236.980301,54.155769l-67.697103,67.563462-6.591773,6.623077-4.003592-3.998077l74.288876-74.186539Z" fill="#7d1230"/><path d="M236.980301,54.155769l-67.697103,67.563462-5.0146-2.948077l68.708111-68.613462Z" fill="url(#eQIPobNwHtd40-fill)"/><path d="M161.478216,128.342308l-5.176362,2.301923-3.113905-6.986539-38.782271-86.826923l5.176361-2.301923l39.146234,87.634616Z" fill="#7d1230"/><path d="M158.728273,122.163462l-5.540324,1.49423-38.782271-86.826923l5.176361-2.301923Z" fill="url(#eQIPobNwHtd42-fill)"/><path d="M222.785747,21.686539l10.959328,33.640384l5.378563-1.736538-10.838006-33.6Zm10.959328,33.640384l6.672654,15.305769c6.30869,14.457693,14.92248,27.784616,25.598725,39.45577l13.062225,14.296153l2.588181-.121153c2.022016-.121154,2.952143-2.503847,1.577172-3.957693l-11.28285-11.953846c-11.363731-12.075-20.584125-26.048077-27.175898-41.273077l-5.782967-13.326923-5.257242,1.575Z" fill="#7d1230"/><path d="M67.33314,129.028846c0,0,71.174971,21,90.99073,21v-34.326923c0,0-67.535342,2.423077-90.99073,3.634615v9.692308Z" fill="none" fill-rule="evenodd" stroke="#003b36" stroke-width="3"/><ellipse rx="5.45944" ry="5.45192" transform="translate(281.667 124.183)" fill="#003b36"/><path d="M228.285632,19.990385L221.612978,0h-6.066049l7.238818,21.686539Z" fill="#003b36"/><ellipse rx="17.7937" ry="17.7692" transform="translate(158.122 133.269)" fill="#ebeffb"/><path d="M94.75168,111.057692h65.796408c10.069641,0,18.198146,8.117308,18.198146,18.173077h-7.683662l-.808806-.807692c-5.823407-5.815385-13.70927-9.086539-21.959096-9.086539h-67.414021c2.749942-5.088461,8.047625-8.278846,13.871031-8.278846Z" fill="#c3d7f2"/><path d="M237.303824,6.057692h71.983778v29.884616h-71.983778Z" fill="#fe9240"/><path d="M309.287601,18.819231v17.123077h-71.983777v-11.307693C248.465353,22.575,264.115759,21.525,286.357937,20.192308c8.088065-.484616,15.771727-.928846,22.929664-1.373077Z" opacity="0.64" fill="url(#eQIPobNwHtd50-fill)"/><path d="M268.645075,4.038462h9.301275v31.903846h-9.301275Z" fill="#003b36"/><path d="M114.810081,47.411539L72.024218,121.476923l-6.025608.928846-.808807-.444231l44.84832-77.578846Z" fill="url(#eQIPobNwHtd52-fill)"/></g></g></g><g id="eQIPobNwHtd53_to" transform="translate(-205.548803,35.351806)"><g id="eQIPobNwHtd53_tr" transform="rotate(4.390692)"><g transform="translate(0,0)"><path d="M70.340426,40.112069c0,0-2.021277-6.077586.80851-8.508621s37.19149-12.560345,37.19149-12.560345l7.276595,1.215518-7.276595,13.370689-15.765958,9.724138L75.595745,47l-5.255319-6.887931Z" fill="#00110f"/><path d="M116.829787,36.87069c-.80851,4.862069,0,16.612069-4.851064,16.206896-1.334042-.121551-2.829787-.405172-4.406383-.567241-4.042553-.486207-8.610638-.364655-12.976595,4.618965-3.112766,3.565518-6.710639,4.254311-9.419149,4.132759-2.587234-.121552-4.406383-1.012931-4.406383-1.012931l-.161702-1.62069-1.778724-15.680172c0,0,8.651064-.405173,12.774468-7.009483.080851-.081034.121277-.202586.161702-.283621c0,0-2.425531-8.913793,4.851064-8.103448c0,0,2.829788,1.62069,3.234043,4.051724s3.234042,2.431035,3.234042,0-1.617021-6.077586,0-7.293103s12.531915-4.051724,12.531915-4.051724s2.021277,11.75,1.212766,16.612069Z" fill="#fe9240"/><path d="M107.57234,52.510345c-4.042553-.486207-8.610638-.324138-12.976595,4.618965-3.112766,3.565518-6.710639,4.254311-9.419149,4.132759l-4.608511-2.633621-5.376596-3.119827l4.446809-17.017242l7.276596-6.482758c0,0,2.223404.607758,4.689361,3.930172c1.010639,1.418104,2.102128,3.281897,3.072341,5.793966c3.314893,8.50862,12.895744,10.777586,12.895744,10.777586Z" opacity="0.64" fill="url(#eQIPobNwHtd56-fill)"/><path d="M150.787234,177.019828l-1.212766.850862c0,.72931-.485106,1.337069-1.17234,1.45862l-2.465958.567242c0,.931896-.646808,1.742241-1.576596,1.944827l-2.465957.486207c0,.688793-.525532,1.296552-1.212766,1.418104l-5.417021.810344h-.202128c-.687234,0-1.253191-.567241-1.253191-1.256034c0-.567241.363829-1.053448.929787-1.215517h.080851c1.17234-.202586,1.9-1.215517,1.9-2.268966c0-.324138-.080851-.688793-.242553-1.012931-.404256-.769827-1.172341-1.256034-2.061702-1.256034h-1.334043c-2.344681,0-4.608511-1.012931-6.144681-2.79569l-10.510638-12.19569l6.87234-9.724138l8.368085,9.724138c1.09149,1.256035,2.668086,1.944828,4.365958,1.904311c3.597872-.121552,9.742553-.202586,11.157447.931896s3.476595,5.915518,4.527659,8.630173c.404256,1.012931.040426,2.309482-.929787,2.998276Z" fill="#fe9240"/><path d="M150.787234,177.019828l-1.212766.850862c0,.72931-.485106,1.337069-1.17234,1.45862l-2.465958.567242c0,.931896-.646808,1.742241-1.576596,1.944827l-2.465957.486207c0,.688793-.525532,1.296552-1.212766,1.418104l-5.417021.810344h-.202128c-.687234,0-1.253191-.567241-1.253191-1.256034c0-.567241.363829-1.053448.929787-1.215517h.080851c1.17234-.202586,1.9-1.215517,1.9-2.268966c0-.324138-.080851-.688793-.242553-1.012931-.404256-.769827-1.172341-1.256034-2.061702-1.256034h-1.334043c-2.344681,0-4.608511-1.012931-6.144681-2.79569l-10.510638-12.19569l6.87234-9.724138l8.368085,9.724138c1.09149,1.256035,2.668086,1.944828,4.365958,1.904311c3.597872-.121552,9.742553-.202586,11.157447.931896s3.476595,5.915518,4.527659,8.630173c.404256,1.012931.040426,2.309482-.929787,2.998276Z" opacity="0.64" fill="url(#eQIPobNwHtd58-fill)"/><path d="M84.287234,298.814655l-6.06383-1.215517-19-11.344828c0,0-18.110638-19.367241-18.514893-25.444827l12.451064-10.656035l16.170212,10.534483c0,0-1.617021,8.508621,1.212766,16.612069c1.455319,4.132759,4.89149,7.617241,7.923404,10.088793c3.476596,2.836207,5.578724,6.968966,5.821277,11.425862Z" fill="#003b36"/><path d="M84.287234,298.814655l-6.06383-1.215517-19-11.344828c0,0-18.110638-19.367241-18.514893-25.444827l12.451064-10.656035l16.170212,10.534483c0,0-1.617021,8.508621,1.212766,16.612069c1.455319,4.132759,4.89149,7.617241,7.923404,10.088793c3.476596,2.836207,5.578724,6.968966,5.821277,11.425862Z" opacity="0.5" fill="url(#eQIPobNwHtd60-fill)"/><path d="M99.851064,85.086207c0,4.862069-5.659575,25.525862-5.659575,25.525862L71.553192,170.172414L19.808511,181.517241c0,0-17.382979-5.672413-19.404256-13.775862s15.765958-39.301724,19.404256-50.241379s20.212766-47.405172,25.468085-55.508621s14.553191-19.448276,22.638298-20.25862c0,0,.121276-1.053449.889361-1.944828.242554-.283621.565958-.567241,1.010639-.769828.768085-.364655,1.859574-.526724,3.355319-.121551c4.851064,1.215517,9.702127,2.836207,13.744681,12.560345c1.9,4.537931,4.851063,11.142241,7.478723,17.381896.444681,1.093966.889362,2.147414,1.334043,3.200862c2.304255,5.793966,4.123404,10.858621,4.123404,13.046552Z" fill="#02bfae"/><path d="M99.851064,85.086207c0,4.862069-5.659575,25.525862-5.659575,25.525862L71.553192,170.172414L19.808511,181.517241c0,0-17.382979-5.672413-19.404256-13.775862s15.765958-39.301724,19.404256-50.241379s20.212766-47.405172,25.468085-55.508621s14.553191-19.448276,22.638298-20.25862c0,0,.121276-1.053449.889361-1.944828.242554-.283621.565958-.567241,1.010639-.769828.768085-.364655,1.859574-.526724,3.355319-.121551c4.851064,1.215517,9.702127,2.836207,13.744681,12.560345c1.9,4.537931,4.851063,11.142241,7.478723,17.381896.444681,1.093966.889362,2.147414,1.334043,3.200862c2.304255,5.793966,4.123404,10.858621,4.123404,13.046552Z" opacity="0.5" fill="url(#eQIPobNwHtd62-fill)"/><path d="M85.702128,156.801724c0,0-26.680851,14.181035-28.297873,15.396552s-21.829787-10.534483-21.829787-10.534483l-7.680851-51.051724c0,0,19.808511,8.913793,29.914894,9.724138c9.823404.769827,24.214893-3.038793,27.610638-.243104.080851.081035.202128.162069.282979.243104c2.829787,3.241379,0,36.465517,0,36.465517Z" fill="#c6692a"/><path d="M89.744681,122.443103v52.996552h-79.517021c.565957-3.200862,1.17234-6.685345,1.9-10.534483c6.468085-35.655172,11.319149-55.50862,15.765957-54.293103c0,0,19.808511,8.913793,29.914894,9.724138c9.823404.769827,24.214893-3.038793,27.610638-.243104.161702-.364655.282979-.567241.282979-.567241s1.819149.324138,4.042553,2.917241Z" fill="url(#eQIPobNwHtd64-fill)"/><ellipse rx="5.65957" ry="5.67241" transform="translate(83.6809 309.957)" fill="#003b36"/><path d="M66.176596,296.018966c-.565958.72931-1.374468,1.134482-2.26383,1.134482-.565958,0-1.172341-.162069-1.657447-.567241l-9.580851-7.171552c-1.253191-.931896-1.495745-2.674138-.565957-3.930172.565957-.729311,1.414893-1.134483,2.263829-1.134483.565958,0,1.172341.162069,1.657447.567241l9.580851,7.171552c1.212766.891379,1.495745,2.674138.565958,3.930173Zm47.338298,28.2c0,1.377586-1.010639,2.552586-2.385107,2.755172l-11.844681,1.742241c-1.53617.243104-2.951063-.850862-3.153191-2.390517c0-.121552-.040426-.283621-.040426-.405172c0-1.377587,1.010639-2.552587,2.385107-2.755173l11.844681-1.742241c1.53617-.202586,2.951063.850862,3.193617,2.390517v.405173Z" fill="#7d1230"/><path d="M66.176596,296.018966c-.565958.72931-1.374468,1.134482-2.26383,1.134482-.565958,0-1.172341-.162069-1.657447-.567241l-9.580851-7.171552c-1.253191-.931896-1.495745-2.674138-.565957-3.930172.565957-.729311,1.414893-1.134483,2.263829-1.134483.565958,0,1.172341.162069,1.657447.567241l9.580851,7.171552c1.212766.891379,1.495745,2.674138.565958,3.930173Z" fill="url(#eQIPobNwHtd67-fill)"/><path d="M113.514894,324.218966c0,1.377586-1.010639,2.552586-2.385107,2.755172l-11.844681,1.742241c-1.53617.243104-2.951063-.850862-3.153191-2.390517c0-.121552-.040426-.283621-.040426-.405172c0-1.377587,1.010639-2.552587,2.385107-2.755173l11.844681-1.742241c1.53617-.202586,2.951063.850862,3.193617,2.390517v.405173Z" fill="url(#eQIPobNwHtd68-fill)"/><path d="M80.97234,305.216379l23.002128,17.219828c.72766.526724.848936,1.539655.323404,2.268965s-1.53617.850862-2.263829.324138L79.031915,307.809483l1.940425-2.593104Z" fill="#003b36"/><path d="M109.148936,235c-9.297872,6.482759-31.127659,35.25-31.127659,35.25-8.085107-2.431034-29.510639-16.612069-29.510639-16.612069c7.074468-7.900862,11.117022-18.030172,17.585107-24.918103s27.691489-56.521552,27.691489-56.521552s23.851064,18.637931,31.531915,27.146552-6.87234,29.172413-16.170213,35.655172Z" fill="#02bfae"/><path d="M109.148936,235c-9.297872,6.482759-31.127659,35.25-31.127659,35.25-.404256-.121552-.889362-.283621-1.374468-.486207-.36383-.121552-.72766-.283621-1.131915-.44569-9.297873-3.970689-27.004256-15.680172-27.004256-15.680172c7.074468-7.900862,11.117022-18.030172,17.585107-24.918103s27.691489-56.521552,27.691489-56.521552s23.851064,18.637931,31.531915,27.146552-6.87234,29.172413-16.170213,35.655172Z" opacity="0.5" fill="url(#eQIPobNwHtd71-fill)"/><path d="M53.846809,50.889655C39.334043,68.15,27.893617,110.612069,27.893617,110.612069l-8.489362,19.043103C33.02766,65.35431,53.523404,51.092241,53.846808,50.889655Z" fill="#fe9240"/><path d="M53.846809,50.889655C39.334043,68.15,27.893617,110.612069,27.893617,110.612069l-8.489362,19.043103C33.02766,65.35431,53.523404,51.092241,53.846808,50.889655Z" opacity="0.64" fill="url(#eQIPobNwHtd73-fill)"/><path d="M117.597872,217.375c-1.940425,1.418103-3.961702,2.876724-5.295744,5.186207-3.517022,6.158621-8.085107,13.330172-18.353192,20.866379-8.489362,6.239655-15.240425,21.312069-17.302128,26.376724-.363829-.121551-.727659-.28362-1.131914-.445689c2.102127-5.186207,8.853191-20.42069,17.706383-26.903449c10.065957-7.374138,14.431914-14.140517,18.029787-20.461206c1.455319-2.552587,3.678723-4.132759,5.619149-5.550863c2.587234-1.863793,4.60851-3.322413,4.406383-6.239655-.323405-4.375862-14.148936-11.628448-19.444681-14.1l.485106-1.093965c2.021277.931896,19.72766,9.237931,20.172341,15.112931.242553,3.484483-2.26383,5.307758-4.89149,7.252586Z" fill="#7d1230"/><path d="M107.531915,190.025862c-.808511,7.698276-6.468085,24.310345-5.659575,32.008621s-50.531915,21.068965-73.978723,2.836207c-3.557447-2.755173-6.508511-5.226724-9.014894-7.576724-12.20851-11.506897-12.451063-19.772414-8.651063-41.854311.565957-3.200862,1.17234-6.685345,1.9-10.534483c6.468085-35.655172,11.319148-55.50862,15.765957-54.293103.242553.769828,7.761702,25.647414,14.148936,35.655172C48.510638,156.396552,54.978723,164.5,61.851064,160.043103c3.880851-2.512069,10.955319-15.112931,16.412766-25.566379c3.517021-6.725862,6.306383-12.600862,7.155319-14.383621.161702-.364655.282979-.567241.282979-.567241s1.819149.324138,4.042553,2.917241c2.061702,2.431035,4.487234,6.887931,6.06383,14.910345c3.234042,16.612069,12.531915,44.974138,11.723404,52.672414Z" fill="#fe9240"/><path d="M107.531915,190.025862c-.808511,7.698276-6.468085,24.310345-5.659575,32.008621s-50.531915,21.068965-73.978723,2.836207c-3.557447-2.755173-6.508511-5.226724-9.014894-7.576724-13.946808-13.168104-12.248936-22.122414-6.751063-52.388794c6.468085-35.655172,11.319148-55.50862,15.765957-54.293103c0,0,7.680851,25.525862,14.148936,35.655172s12.93617,18.232759,19.808511,13.775862c3.880851-2.512069,10.955319-15.112931,16.412766-25.566379c4.204255-8.103448,7.438298-14.950862,7.438298-14.950862s6.87234,1.215517,10.106383,17.827586s12.531915,44.974138,11.723404,52.672414Z" opacity="0.64" fill="url(#eQIPobNwHtd76-fill)"/><path d="M107.531915,190.025862c-.808511,7.698276-6.468085,24.310345-5.659575,32.008621s-50.531915,21.068965-73.978723,2.836207c-3.557447-2.755173-6.508511-5.226724-9.014894-7.576724c4.16383-.526725,9.136171-1.296552,15.078724-2.552587c21.587234-4.659482,39.051064-8.427586,46.085106-21.068965c3.112766-5.59138,1.940426-8.832759-.404255-38.896552-.646809-8.346552-1.09149-14.991379-1.374468-20.299138c4.204255-8.103448,7.438298-14.950862,7.438298-14.950862s6.87234,1.215517,10.106383,17.827586s12.531915,44.974138,11.723404,52.672414Z" opacity="0.64" fill="url(#eQIPobNwHtd77-fill)"/><path d="M111.37234,167.538793c0,0-21.425532-22.284483-38-48.012931s-21.425531-45.581896-15.765957-53.685345s22.638298-10.939655,29.510638,0s2.829788,24.715518,9.297873,38.49138s8.893617,10.939655,11.319149,17.422413s19,31.198276,18.595744,33.629311-7.276596,10.12931-14.957447,12.155172Z" fill="#02bfae"/><path d="M83.680851,300.637931c0,0-12.208511-3.606034-19.040426-8.873276-6.831914-5.307758-30.278723-23.945689-30.278723-23.945689l6.387234-7.009483c0,0,7.195745,7.617241,14.472341,16.125862s9.297872,11.344827,14.553191,14.181034s14.553192,7.698276,14.553192,7.698276l-.646809,1.823276Z" fill="#001916"/><path d="M108.623404,23.459483c0,0,4.972341,4.092241,15.078724,3.687069c0,0-2.425532-4.456897-8.893617-8.103449s-6.185107,4.41638-6.185107,4.41638Z" fill="#00110f"/><path d="M115.819149,11.547414c-2.829787,5.267241-35.978723,14.586207-35.978723,14.586207L70.946808,27.75431c0,0-4.810638-2.593103-5.214893-6.401724-.040426-.162069-.040426-.324138-.040426-.526724v-.202586c0-.162069.040426-.364655.080851-.526724l.121277-.364655C67.146809,15.923276,74.1,11.223276,78.223404,8.913793c.121277-.081034.282979-.162069.404256-.202586c4.446808-2.431035,9.702127-4.051724,9.702127-4.051724.606383-.162069,22.961702-5.631897,25.023404-4.051724.202128.162069.444681.405172.687235.607758.323404.324138.687234.729311,1.010638,1.175.040425.081035.121276.162069.161702.243104c1.576596,2.066379,2.62766,5.186207.606383,8.913793Z" fill="#02bfae"/><path d="M116.829787,20.258621c-20.212766,8.913793-46.489361,11.75-46.489361,11.75-.202128-2.633621-1.010639-5.469828-1.010639-5.469828c4.851064.405173,15.765958-3.241379,25.872341-6.077586s20.414893-9.116379,20.414893-9.116379c0,5.672413,1.212766,8.913793,1.212766,8.913793Z" fill="#02bfae"/><ellipse rx="3.23404" ry="3.24138" transform="translate(134.213 179.491)" fill="#001916"/><path d="M116.829787,20.258621c-20.212766,8.913793-46.489361,11.75-46.489361,11.75-.202128-2.633621-1.010639-5.469828-1.010639-5.469828c4.851064.405173,15.765958-3.241379,25.872341-6.077586s20.414893-9.116379,20.414893-9.116379c0,5.672413,1.212766,8.913793,1.212766,8.913793Z" opacity="0.5" fill="url(#eQIPobNwHtd84-fill)"/><path d="M115.131915,2.39053c-3.274468,5.429343-10.914894,10.615582-35.493617,17.057862-4.770213,1.256042-10.187234,1.215525-13.946809,1.215674c0-.162219.040426-.364807.080851-.526876l.121277-.364658C67.146809,15.963888,74.1,11.26386,78.223404,8.954363c.121277-.081035.282979-.16207.404256-.202588c4.446808-2.431049,9.702127-4.051749,9.702127-4.051749.606383-.16207,22.961702-5.63193,25.023404-4.051748.202128.16207.444681.405175.687235.607762.404255.283622.727659.688797,1.091489,1.13449Z" opacity="0.5" fill="url(#eQIPobNwHtd85-fill)"/><path d="M82.87234,310.848276L59.951064,293.385345c-.72766-.526724-.848936-1.539655-.323404-2.268966s1.53617-.850862,2.263829-.324138l22.921277,17.462931c.72766.526725.848936,1.539656.323404,2.268966-.565957.72931-1.576595.891379-2.26383.324138Z" fill="#003b36"/><path d="M115.293617,2.593104c-.040426.121551-.040426.28362-.080851.405172-1.617021,5.956034-15.2,10.696552-28.338298,15.315517l-.768085.283621c-6.751064,2.35-12.12766,3.07931-16.089362,3.07931-1.657446,0-3.112766-.121552-4.285106-.324138-.040426-.162069-.040426-.324138-.040426-.526724c0-.243103.040426-.486207.080851-.72931c3.840426.567241,10.510639.648276,19.929788-2.674138l.768085-.283621c12.248936-4.294827,26.114893-9.156896,27.570213-14.464655.121276-.486207.161702-1.012931.080851-1.499138.363829.44569.768085.891379,1.17234,1.418104ZM95.687234,72.039655c-3.07234-3.038793-5.942553-6.685345-7.761702-10.858621C83.6,51.335345,73.534043,43.231897,68.804255,39.787931c.242554-.283621.565958-.567241,1.010639-.769828c4.97234,3.646552,14.876595,11.790518,19.242553,21.676725c1.334042,2.998275,3.193617,5.712931,5.33617,8.143965.444681,1.093966.889362,2.187931,1.293617,3.200862Z" fill="#7d1230"/></g></g></g></g></svg>
